<svg preserveAspectRatio="none" width="100%" height="100%" overflow="visible" style="display: block;" viewBox="0 0 18.9559 18.9104" fill="none" xmlns="http://www.w3.org/2000/svg">
<g id="Group" filter="url(#filter0_di_402_8860)">
<g id="Group_2" filter="url(#filter1_i_402_8860)">
<path id="&#231;&#159;&#162;&#233;&#135;&#143; 2" fill-rule="evenodd" clip-rule="evenodd" d="M15.7826 3.28443C14.2834 1.39185 11.2706 -1.41196 5.50311 0.831089C-0.265834 3.07414 -0.909189 11.3174 1.43325 14.2894C3.77427 17.2614 7.87389 18.8568 10.7293 18.4362C13.5847 18.0157 14.3854 16.9642 15.084 16.1932C15.7826 15.4221 17.0679 13.88 17.0679 11.766C17.0679 9.65329 17.425 8.16307 17.425 7.49015C17.425 6.81723 17.2819 5.177 15.7826 3.28443Z" fill="url(#paint0_radial_402_8860)" fill-opacity="0.6"/>
<path id="&#231;&#159;&#162;&#233;&#135;&#143; 2_2" fill-rule="evenodd" clip-rule="evenodd" d="M15.7826 3.28443C14.2834 1.39185 11.2706 -1.41196 5.50311 0.831089C-0.265834 3.07414 -0.909189 11.3174 1.43325 14.2894C3.77427 17.2614 7.87389 18.8568 10.7293 18.4362C13.5847 18.0157 14.3854 16.9642 15.084 16.1932C15.7826 15.4221 17.0679 13.88 17.0679 11.766C17.0679 9.65329 17.425 8.16307 17.425 7.49015C17.425 6.81723 17.2819 5.177 15.7826 3.28443Z" fill="url(#paint1_radial_402_8860)" fill-opacity="0.4"/>
<path id="&#231;&#159;&#162;&#233;&#135;&#143; 2_3" fill-rule="evenodd" clip-rule="evenodd" d="M15.7826 3.28443C14.2834 1.39185 11.2706 -1.41196 5.50311 0.831089C-0.265834 3.07414 -0.909189 11.3174 1.43325 14.2894C3.77427 17.2614 7.87389 18.8568 10.7293 18.4362C13.5847 18.0157 14.3854 16.9642 15.084 16.1932C15.7826 15.4221 17.0679 13.88 17.0679 11.766C17.0679 9.65329 17.425 8.16307 17.425 7.49015C17.425 6.81723 17.2819 5.177 15.7826 3.28443Z" fill="url(#paint2_radial_402_8860)" fill-opacity="0.34"/>
<path id="&#231;&#159;&#162;&#233;&#135;&#143; 2_4" fill-rule="evenodd" clip-rule="evenodd" d="M15.7826 3.28443C14.2834 1.39185 11.2706 -1.41196 5.50311 0.831089C-0.265834 3.07414 -0.909189 11.3174 1.43325 14.2894C3.77427 17.2614 7.87389 18.8568 10.7293 18.4362C13.5847 18.0157 14.3854 16.9642 15.084 16.1932C15.7826 15.4221 17.0679 13.88 17.0679 11.766C17.0679 9.65329 17.425 8.16307 17.425 7.49015C17.425 6.81723 17.2819 5.177 15.7826 3.28443Z" fill="url(#paint3_radial_402_8860)" fill-opacity="0.2"/>
<g id="&#231;&#159;&#162;&#233;&#135;&#143; 2_5">
</g>
<path id="&#231;&#159;&#162;&#233;&#135;&#143; 2_6" fill-rule="evenodd" clip-rule="evenodd" d="M15.7826 3.28443C14.2834 1.39185 11.2706 -1.41196 5.50311 0.831089C-0.265834 3.07414 -0.909189 11.3174 1.43325 14.2894C3.77427 17.2614 7.87389 18.8568 10.7293 18.4362C13.5847 18.0157 14.3854 16.9642 15.084 16.1932C15.7826 15.4221 17.0679 13.88 17.0679 11.766C17.0679 9.65329 17.425 8.16307 17.425 7.49015C17.425 6.81723 17.2819 5.177 15.7826 3.28443Z" fill="url(#paint4_radial_402_8860)" fill-opacity="0.6"/>
</g>
<g id="&#231;&#159;&#162;&#233;&#135;&#143; 2_7">
</g>
<g id="&#231;&#159;&#162;&#233;&#135;&#143; 2_8">
</g>
<g id="&#231;&#159;&#162;&#233;&#135;&#143; 2_9">
</g>
<g id="&#231;&#159;&#162;&#233;&#135;&#143; 2_10">
</g>
<g id="&#231;&#159;&#162;&#233;&#135;&#143; 2_11">
</g>
<path id="&#231;&#159;&#162;&#233;&#135;&#143; 2_12" fill-rule="evenodd" clip-rule="evenodd" d="M15.7826 3.28538C14.2833 1.3928 11.2706 -1.41101 5.50309 0.83204C-0.265851 3.07509 -0.909206 11.3183 1.43323 14.2904C3.77425 17.2624 7.87387 18.8578 10.7293 18.4372C13.5847 18.0166 14.3854 16.9652 15.084 16.1941C15.7826 15.4231 17.0679 13.881 17.0679 11.7669C17.0679 9.65425 17.425 8.16402 17.425 7.4911C17.425 6.81819 17.2819 5.17795 15.7826 3.28538Z" fill="url(#paint5_radial_402_8860)" fill-opacity="0.6"/>
<path id="&#231;&#159;&#162;&#233;&#135;&#143; 2_13" fill-rule="evenodd" clip-rule="evenodd" d="M15.7826 3.28538C14.2833 1.3928 11.2706 -1.41101 5.50309 0.83204C-0.265851 3.07509 -0.909206 11.3183 1.43323 14.2904C3.77425 17.2624 7.87387 18.8578 10.7293 18.4372C13.5847 18.0166 14.3854 16.9652 15.084 16.1941C15.7826 15.4231 17.0679 13.881 17.0679 11.7669C17.0679 9.65425 17.425 8.16402 17.425 7.4911C17.425 6.81819 17.2819 5.17795 15.7826 3.28538Z" fill="url(#paint6_radial_402_8860)" fill-opacity="0.2"/>
<g id="&#231;&#159;&#162;&#233;&#135;&#143; 2_14">
</g>
<g id="Group_3" filter="url(#filter2_i_402_8860)">
<g id="&#231;&#159;&#162;&#233;&#135;&#143; 3">
</g>
<g id="&#231;&#159;&#162;&#233;&#135;&#143; 3_2">
</g>
<g id="&#231;&#159;&#162;&#233;&#135;&#143; 3_3">
</g>
<path id="&#231;&#159;&#162;&#233;&#135;&#143; 3_4" fill-rule="evenodd" clip-rule="evenodd" d="M15.2054 4.44837C14.0615 3.79509 11.5552 2.6816 9.2703 2.48852C6.69587 2.27076 4.55146 2.85146 2.97898 4.44837C1.40509 6.04529 0.190254 9.29718 2.19275 13.5943C4.19382 17.8915 8.12642 17.8044 10.4142 17.1511C12.7019 16.4978 15.9193 15.3364 17.6365 12.07C19.4729 8.57422 16.7537 5.36732 15.2054 4.44837Z" fill="url(#paint7_radial_402_8860)" fill-opacity="0.8"/>
</g>
<g id="&#231;&#159;&#162;&#233;&#135;&#143; 3_5">
</g>
<g id="Group_4" filter="url(#filter3_i_402_8860)">
<path id="&#231;&#159;&#162;&#233;&#135;&#143; 4" fill-rule="evenodd" clip-rule="evenodd" d="M17.8045 11.2852C17.8045 9.37256 17.0257 7.366 16.1829 6.33426C13.7441 3.34577 13.7826 0.855368 11.3766 0.855368C8.00102 0.852521 1.90912 1.35345 1.12041 7.61504C0.661984 11.251 1.37951 20.9622 13.3569 16.5506C16.2683 15.479 17.8045 13.1978 17.8045 11.2852Z" fill="url(#paint8_radial_402_8860)"/>
</g>
<g id="&#231;&#159;&#162;&#233;&#135;&#143; 4_2">
</g>
<g id="Group_5" filter="url(#filter4_i_402_8860)">
<path id="&#231;&#159;&#162;&#233;&#135;&#143; 1" fill-rule="evenodd" clip-rule="evenodd" d="M12.7308 1.79196C11.4497 1.43659 10.2123 0.754263 8.1063 0.867984C5.99885 0.981704 2.14274 2.53115 1.34468 6.90939C0.548033 11.2876 2.23173 15.8777 4.90276 17.2153C7.5752 18.5544 12.9879 17.403 15.4357 15.356C17.5926 13.5507 19.2382 10.9564 18.6379 7.822C17.9966 4.48146 15.4103 2.53541 12.7308 1.79196Z" fill="url(#paint9_radial_402_8860)" fill-opacity="0.6"/>
<path id="&#231;&#159;&#162;&#233;&#135;&#143; 1_2" fill-rule="evenodd" clip-rule="evenodd" d="M12.7308 1.79196C11.4497 1.43659 10.2123 0.754263 8.1063 0.867984C5.99885 0.981704 2.14274 2.53115 1.34468 6.90939C0.548033 11.2876 2.23173 15.8777 4.90276 17.2153C7.5752 18.5544 12.9879 17.403 15.4357 15.356C17.5926 13.5507 19.2382 10.9564 18.6379 7.822C17.9966 4.48146 15.4103 2.53541 12.7308 1.79196Z" fill="url(#paint10_radial_402_8860)" fill-opacity="0.4"/>
<path id="&#231;&#159;&#162;&#233;&#135;&#143; 1_3" fill-rule="evenodd" clip-rule="evenodd" d="M12.7308 1.79196C11.4497 1.43659 10.2123 0.754263 8.1063 0.867984C5.99885 0.981704 2.14274 2.53115 1.34468 6.90939C0.548033 11.2876 2.23173 15.8777 4.90276 17.2153C7.5752 18.5544 12.9879 17.403 15.4357 15.356C17.5926 13.5507 19.2382 10.9564 18.6379 7.822C17.9966 4.48146 15.4103 2.53541 12.7308 1.79196Z" fill="url(#paint11_radial_402_8860)" fill-opacity="0.34"/>
<path id="&#231;&#159;&#162;&#233;&#135;&#143; 1_4" fill-rule="evenodd" clip-rule="evenodd" d="M12.7308 1.79196C11.4497 1.43659 10.2123 0.754263 8.1063 0.867984C5.99885 0.981704 2.14274 2.53115 1.34468 6.90939C0.548033 11.2876 2.23173 15.8777 4.90276 17.2153C7.5752 18.5544 12.9879 17.403 15.4357 15.356C17.5926 13.5507 19.2382 10.9564 18.6379 7.822C17.9966 4.48146 15.4103 2.53541 12.7308 1.79196Z" fill="url(#paint12_radial_402_8860)" fill-opacity="0.2"/>
<path id="&#231;&#159;&#162;&#233;&#135;&#143; 1_5" fill-rule="evenodd" clip-rule="evenodd" d="M12.7308 1.79196C11.4497 1.43659 10.2123 0.754263 8.1063 0.867984C5.99885 0.981704 2.14274 2.53115 1.34468 6.90939C0.548033 11.2876 2.23173 15.8777 4.90276 17.2153C7.5752 18.5544 12.9879 17.403 15.4357 15.356C17.5926 13.5507 19.2382 10.9564 18.6379 7.822C17.9966 4.48146 15.4103 2.53541 12.7308 1.79196Z" fill="url(#paint13_radial_402_8860)" fill-opacity="0.4"/>
<path id="&#231;&#159;&#162;&#233;&#135;&#143; 1_6" fill-rule="evenodd" clip-rule="evenodd" d="M12.7308 1.79196C11.4497 1.43659 10.2123 0.754263 8.1063 0.867984C5.99885 0.981704 2.14274 2.53115 1.34468 6.90939C0.548033 11.2876 2.23173 15.8777 4.90276 17.2153C7.5752 18.5544 12.9879 17.403 15.4357 15.356C17.5926 13.5507 19.2382 10.9564 18.6379 7.822C17.9966 4.48146 15.4103 2.53541 12.7308 1.79196Z" fill="url(#paint14_radial_402_8860)" fill-opacity="0.8"/>
<path id="&#231;&#159;&#162;&#233;&#135;&#143; 1_7" fill-rule="evenodd" clip-rule="evenodd" d="M12.7308 1.79196C11.4497 1.43659 10.2123 0.754263 8.1063 0.867984C5.99885 0.981704 2.14274 2.53115 1.34468 6.90939C0.548033 11.2876 2.23173 15.8777 4.90276 17.2153C7.5752 18.5544 12.9879 17.403 15.4357 15.356C17.5926 13.5507 19.2382 10.9564 18.6379 7.822C17.9966 4.48146 15.4103 2.53541 12.7308 1.79196Z" fill="url(#paint15_radial_402_8860)" fill-opacity="0.4"/>
<path id="&#231;&#159;&#162;&#233;&#135;&#143; 1_8" fill-rule="evenodd" clip-rule="evenodd" d="M12.7308 1.79196C11.4497 1.43659 10.2123 0.754263 8.1063 0.867984C5.99885 0.981704 2.14274 2.53115 1.34468 6.90939C0.548033 11.2876 2.23173 15.8777 4.90276 17.2153C7.5752 18.5544 12.9879 17.403 15.4357 15.356C17.5926 13.5507 19.2382 10.9564 18.6379 7.822C17.9966 4.48146 15.4103 2.53541 12.7308 1.79196Z" fill="url(#paint16_radial_402_8860)"/>
</g>
<g id="&#231;&#159;&#162;&#233;&#135;&#143; 1_9">
</g>
<g id="&#231;&#159;&#162;&#233;&#135;&#143; 1_10">
</g>
<g id="&#231;&#159;&#162;&#233;&#135;&#143; 1_11">
</g>
<g id="&#231;&#159;&#162;&#233;&#135;&#143; 1_12">
</g>
<g id="&#231;&#159;&#162;&#233;&#135;&#143; 1_13">
</g>
<g id="&#231;&#159;&#162;&#233;&#135;&#143; 1_14">
</g>
<g id="&#231;&#159;&#162;&#233;&#135;&#143; 1_15">
</g>
<g id="&#231;&#159;&#162;&#233;&#135;&#143; 1_16">
</g>
<g id="&#231;&#159;&#162;&#233;&#135;&#143; 1_17">
</g>
<g id="Group_6" filter="url(#filter5_i_402_8860)">
<g id="&#231;&#159;&#162;&#233;&#135;&#143; 1_18">
</g>
<g id="&#231;&#159;&#162;&#233;&#135;&#143; 1_19">
</g>
<g id="&#231;&#159;&#162;&#233;&#135;&#143; 1_20">
</g>
<g id="&#231;&#159;&#162;&#233;&#135;&#143; 1_21">
</g>
<g id="&#231;&#159;&#162;&#233;&#135;&#143; 1_22">
</g>
<g id="&#231;&#159;&#162;&#233;&#135;&#143; 1_23">
</g>
<path id="&#231;&#159;&#162;&#233;&#135;&#143; 1_24" fill-rule="evenodd" clip-rule="evenodd" d="M12.7308 1.79196C11.4497 1.43659 10.2123 0.754263 8.1063 0.867984C5.99885 0.981704 2.14274 2.53115 1.34468 6.90939C0.548033 11.2876 2.23173 15.8777 4.90276 17.2153C7.5752 18.5544 12.9879 17.403 15.4357 15.356C17.5926 13.5507 19.2382 10.9564 18.6379 7.822C17.9966 4.48146 15.4103 2.53541 12.7308 1.79196Z" fill="var(--fill-0, white)" fill-opacity="0.01"/>
</g>
<path id="&#231;&#159;&#162;&#233;&#135;&#143; 1_25" d="M8.10626 0.867578C5.99881 0.981299 2.1427 2.53074 1.34464 6.90899C0.547992 11.2872 2.23169 15.8773 4.90272 17.2149C7.57516 18.554 12.9878 17.4026 15.4357 15.3556C17.5926 13.5503 19.2381 10.956 18.6378 7.8216C17.9966 4.48105 15.4103 2.53501 12.7308 1.79156C11.4496 1.43618 10.2123 0.753857 8.10626 0.867578Z" stroke="url(#paint17_linear_402_8860)" stroke-opacity="0.6" stroke-width="0.0610032"/>
<g id="Group_7" filter="url(#filter6_i_402_8860)">
<g id="&#231;&#159;&#162;&#233;&#135;&#143; 1_26">
</g>
<g id="&#231;&#159;&#162;&#233;&#135;&#143; 1_27">
</g>
<g id="&#231;&#159;&#162;&#233;&#135;&#143; 1_28">
</g>
<g id="&#231;&#159;&#162;&#233;&#135;&#143; 1_29">
</g>
<g id="&#231;&#159;&#162;&#233;&#135;&#143; 1_30">
</g>
<g id="&#231;&#159;&#162;&#233;&#135;&#143; 1_31">
</g>
<path id="&#231;&#159;&#162;&#233;&#135;&#143; 1_32" fill-rule="evenodd" clip-rule="evenodd" d="M12.7308 1.79196C11.4497 1.43659 10.2123 0.754263 8.1063 0.867984C5.99885 0.981704 2.14274 2.53115 1.34468 6.90939C0.548033 11.2876 2.23173 15.8777 4.90276 17.2153C7.5752 18.5544 12.9879 17.403 15.4357 15.356C17.5926 13.5507 19.2382 10.9564 18.6379 7.822C17.9966 4.48146 15.4103 2.53541 12.7308 1.79196Z" fill="var(--fill-0, white)" fill-opacity="0.01"/>
</g>
<path id="&#231;&#159;&#162;&#233;&#135;&#143; 1_33" d="M8.10626 0.867578C5.99881 0.981299 2.1427 2.53074 1.34464 6.90899C0.547992 11.2872 2.23169 15.8773 4.90272 17.2149C7.57516 18.554 12.9878 17.4026 15.4357 15.3556C17.5926 13.5503 19.2381 10.956 18.6378 7.8216C17.9966 4.48105 15.4103 2.53501 12.7308 1.79156C11.4496 1.43618 10.2123 0.753857 8.10626 0.867578Z" stroke="url(#paint18_linear_402_8860)" stroke-opacity="0.6" stroke-width="0.0610032"/>
<g id="Group_8" opacity="0.52">
<path id="&#230;&#164;&#173;&#229;&#156;&#134; 1" d="M9.29272 16.5542C13.5199 16.5542 16.9467 13.1492 16.9467 8.94885C16.9467 4.74854 13.5199 1.34352 9.29272 1.34352C5.06556 1.34352 1.63878 4.74854 1.63878 8.94885C1.63878 13.1492 5.06556 16.5542 9.29272 16.5542Z" fill="url(#paint19_radial_402_8860)"/>
</g>
</g>
<defs>
<filter id="filter0_di_402_8860" x="-0.0813375" y="-0.243818" width="19.0372" height="19.1543" filterUnits="userSpaceOnUse" color-interpolation-filters="sRGB">
<feFlood flood-opacity="0" result="BackgroundImageFix"/>
<feColorMatrix in="SourceAlpha" type="matrix" values="0 0 0 0 0 0 0 0 0 0 0 0 0 0 0 0 0 0 127 0" result="hardAlpha"/>
<feOffset dy="0.244013"/>
<feGaussianBlur stdDeviation="0.0813376"/>
<feComposite in2="hardAlpha" operator="out"/>
<feColorMatrix type="matrix" values="0 0 0 0 1 0 0 0 0 0.27451 0 0 0 0 0 0 0 0 0.25 0"/>
<feBlend mode="normal" in2="BackgroundImageFix" result="effect1_dropShadow_402_8860"/>
<feBlend mode="normal" in="SourceGraphic" in2="effect1_dropShadow_402_8860" result="shape"/>
<feColorMatrix in="SourceAlpha" type="matrix" values="0 0 0 0 0 0 0 0 0 0 0 0 0 0 0 0 0 0 127 0" result="hardAlpha"/>
<feOffset dx="-0.244013" dy="-0.244013"/>
<feGaussianBlur stdDeviation="0.162675"/>
<feComposite in2="hardAlpha" operator="arithmetic" k2="-1" k3="1"/>
<feColorMatrix type="matrix" values="0 0 0 0 0 0 0 0 0 0.24314 0 0 0 0 1 0 0 0 0.53 0"/>
<feBlend mode="normal" in2="shape" result="effect2_innerShadow_402_8860"/>
</filter>
<filter id="filter1_i_402_8860" x="0.162692" y="0.000194321" width="17.2623" height="18.5026" filterUnits="userSpaceOnUse" color-interpolation-filters="sRGB">
<feFlood flood-opacity="0" result="BackgroundImageFix"/>
<feBlend mode="normal" in="SourceGraphic" in2="BackgroundImageFix" result="shape"/>
<feColorMatrix in="SourceAlpha" type="matrix" values="0 0 0 0 0 0 0 0 0 0 0 0 0 0 0 0 0 0 127 0" result="hardAlpha"/>
<feOffset/>
<feGaussianBlur stdDeviation="0.0813376"/>
<feComposite in2="hardAlpha" operator="arithmetic" k2="-1" k3="1"/>
<feColorMatrix type="matrix" values="0 0 0 0 1 0 0 0 0 1 0 0 0 0 1 0 0 0 0.6 0"/>
<feBlend mode="normal" in2="shape" result="effect1_innerShadow_402_8860"/>
</filter>
<filter id="filter2_i_402_8860" x="1.1465" y="2.44452" width="17.1043" height="15.039" filterUnits="userSpaceOnUse" color-interpolation-filters="sRGB">
<feFlood flood-opacity="0" result="BackgroundImageFix"/>
<feBlend mode="normal" in="SourceGraphic" in2="BackgroundImageFix" result="shape"/>
<feColorMatrix in="SourceAlpha" type="matrix" values="0 0 0 0 0 0 0 0 0 0 0 0 0 0 0 0 0 0 127 0" result="hardAlpha"/>
<feOffset/>
<feGaussianBlur stdDeviation="0.0406688"/>
<feComposite in2="hardAlpha" operator="arithmetic" k2="-1" k3="1"/>
<feColorMatrix type="matrix" values="0 0 0 0 1 0 0 0 0 1 0 0 0 0 1 0 0 0 0.6 0"/>
<feBlend mode="normal" in2="shape" result="effect1_innerShadow_402_8860"/>
</filter>
<filter id="filter3_i_402_8860" x="1.0233" y="0.855356" width="16.7811" height="17.148" filterUnits="userSpaceOnUse" color-interpolation-filters="sRGB">
<feFlood flood-opacity="0" result="BackgroundImageFix"/>
<feBlend mode="normal" in="SourceGraphic" in2="BackgroundImageFix" result="shape"/>
<feColorMatrix in="SourceAlpha" type="matrix" values="0 0 0 0 0 0 0 0 0 0 0 0 0 0 0 0 0 0 127 0" result="hardAlpha"/>
<feOffset dy="0.488026"/>
<feGaussianBlur stdDeviation="0.162675"/>
<feComposite in2="hardAlpha" operator="arithmetic" k2="-1" k3="1"/>
<feColorMatrix type="matrix" values="0 0 0 0 1 0 0 0 0 1 0 0 0 0 1 0 0 0 0.039 0"/>
<feBlend mode="normal" in2="shape" result="effect1_innerShadow_402_8860"/>
</filter>
<filter id="filter4_i_402_8860" x="1.1461" y="0.855356" width="17.6166" height="16.9358" filterUnits="userSpaceOnUse" color-interpolation-filters="sRGB">
<feFlood flood-opacity="0" result="BackgroundImageFix"/>
<feBlend mode="normal" in="SourceGraphic" in2="BackgroundImageFix" result="shape"/>
<feColorMatrix in="SourceAlpha" type="matrix" values="0 0 0 0 0 0 0 0 0 0 0 0 0 0 0 0 0 0 127 0" result="hardAlpha"/>
<feOffset/>
<feGaussianBlur stdDeviation="0.0813376"/>
<feComposite in2="hardAlpha" operator="arithmetic" k2="-1" k3="1"/>
<feColorMatrix type="matrix" values="0 0 0 0 1 0 0 0 0 1 0 0 0 0 1 0 0 0 0.6 0"/>
<feBlend mode="normal" in2="shape" result="effect1_innerShadow_402_8860"/>
</filter>
<filter id="filter5_i_402_8860" x="1.1461" y="0.855356" width="17.6166" height="16.9358" filterUnits="userSpaceOnUse" color-interpolation-filters="sRGB">
<feFlood flood-opacity="0" result="BackgroundImageFix"/>
<feBlend mode="normal" in="SourceGraphic" in2="BackgroundImageFix" result="shape"/>
<feColorMatrix in="SourceAlpha" type="matrix" values="0 0 0 0 0 0 0 0 0 0 0 0 0 0 0 0 0 0 127 0" result="hardAlpha"/>
<feOffset/>
<feGaussianBlur stdDeviation="0.0813376"/>
<feComposite in2="hardAlpha" operator="arithmetic" k2="-1" k3="1"/>
<feColorMatrix type="matrix" values="0 0 0 0 1 0 0 0 0 1 0 0 0 0 1 0 0 0 0.6 0"/>
<feBlend mode="normal" in2="shape" result="effect1_innerShadow_402_8860"/>
</filter>
<filter id="filter6_i_402_8860" x="1.1461" y="0.855356" width="17.6166" height="16.9358" filterUnits="userSpaceOnUse" color-interpolation-filters="sRGB">
<feFlood flood-opacity="0" result="BackgroundImageFix"/>
<feBlend mode="normal" in="SourceGraphic" in2="BackgroundImageFix" result="shape"/>
<feColorMatrix in="SourceAlpha" type="matrix" values="0 0 0 0 0 0 0 0 0 0 0 0 0 0 0 0 0 0 127 0" result="hardAlpha"/>
<feOffset/>
<feGaussianBlur stdDeviation="0.0406688"/>
<feComposite in2="hardAlpha" operator="arithmetic" k2="-1" k3="1"/>
<feColorMatrix type="matrix" values="0 0 0 0 1 0 0 0 0 1 0 0 0 0 1 0 0 0 0.6 0"/>
<feBlend mode="normal" in2="shape" result="effect1_innerShadow_402_8860"/>
</filter>
<radialGradient id="paint0_radial_402_8860" cx="0" cy="0" r="1" gradientTransform="matrix(-2.1256 18.5017 -16.8573 -1.89543 10.9202 0.00115892)" gradientUnits="userSpaceOnUse">
<stop offset="0.018757" stop-color="#4F7AFF"/>
<stop offset="0.510566" stop-opacity="0"/>
</radialGradient>
<radialGradient id="paint1_radial_402_8860" cx="0" cy="0" r="1" gradientTransform="matrix(8.85492 9.00167 -13.6123 13.1051 1.87467 3.2662)" gradientUnits="userSpaceOnUse">
<stop offset="0.007027" stop-color="#B6B8FF"/>
<stop offset="1" stop-opacity="0"/>
</radialGradient>
<radialGradient id="paint2_radial_402_8860" cx="0" cy="0" r="1" gradientTransform="matrix(9.76586 5.95994 -5.56061 8.91742 7.65963 9.25193)" gradientUnits="userSpaceOnUse">
<stop offset="0.313545" stop-opacity="0"/>
<stop offset="1" stop-color="#8879FD"/>
</radialGradient>
<radialGradient id="paint3_radial_402_8860" cx="0" cy="0" r="1" gradientTransform="matrix(-4.11892 11.9992 -11.1952 -3.76108 14.3487 2.72198)" gradientUnits="userSpaceOnUse">
<stop offset="0.000595" stop-color="#1A00FF"/>
<stop offset="1" stop-opacity="0"/>
</radialGradient>
<radialGradient id="paint4_radial_402_8860" cx="0" cy="0" r="1" gradientTransform="matrix(-8.56693 13.5284 -10.3321 -6.40346 12.9427 3.15545)" gradientUnits="userSpaceOnUse">
<stop offset="0.928993" stop-color="#FF7200" stop-opacity="0"/>
<stop offset="1" stop-color="#FF6A00"/>
</radialGradient>
<radialGradient id="paint5_radial_402_8860" cx="0" cy="0" r="1" gradientTransform="matrix(-4.14076 -9.19942 8.88407 -3.91364 9.51584 9.69224)" gradientUnits="userSpaceOnUse">
<stop offset="0.90616" stop-color="white" stop-opacity="0"/>
<stop offset="1" stop-color="white"/>
</radialGradient>
<radialGradient id="paint6_radial_402_8860" cx="0" cy="0" r="1" gradientTransform="matrix(8.85262 11.2153 -10.4638 8.08349 4.80405 2.03488)" gradientUnits="userSpaceOnUse">
<stop stop-color="#D3CFFF"/>
<stop offset="0.68543" stop-color="#ADBEFF" stop-opacity="0"/>
</radialGradient>
<radialGradient id="paint7_radial_402_8860" cx="0" cy="0" r="1" gradientTransform="matrix(4.00392 -9.21855 10.285 4.6743 8.08243 11.6635)" gradientUnits="userSpaceOnUse">
<stop offset="0.663743" stop-color="#292929" stop-opacity="0.039216"/>
<stop offset="0.999532" stop-color="#6772FF" stop-opacity="0.384314"/>
</radialGradient>
<radialGradient id="paint8_radial_402_8860" cx="0" cy="0" r="1" gradientTransform="matrix(12.1185 1.28832 -1.06403 10.0005 5.68627 9.26725)" gradientUnits="userSpaceOnUse">
<stop offset="0.900111" stop-color="#FF9E00" stop-opacity="0"/>
<stop offset="1" stop-color="#696FFE" stop-opacity="0.219608"/>
</radialGradient>
<radialGradient id="paint9_radial_402_8860" cx="0" cy="0" r="1" gradientTransform="matrix(-2.16916 16.9355 -17.203 -2.23163 12.1243 0.856611)" gradientUnits="userSpaceOnUse">
<stop offset="0.018757" stop-color="#4F7AFF"/>
<stop offset="0.506049" stop-opacity="0"/>
</radialGradient>
<radialGradient id="paint10_radial_402_8860" cx="0" cy="0" r="1" gradientTransform="matrix(9.82649 7.04459 -11.8766 16.7787 2.89334 3.84519)" gradientUnits="userSpaceOnUse">
<stop offset="0.007027" stop-color="#AAA3FF"/>
<stop offset="0.994528" stop-opacity="0.011765"/>
</radialGradient>
<radialGradient id="paint11_radial_402_8860" cx="0" cy="0" r="1" gradientTransform="matrix(10.3847 4.6964 -4.8851 10.9403 6.05733 9.32439)" gradientUnits="userSpaceOnUse">
<stop offset="0.306882" stop-opacity="0"/>
<stop offset="1" stop-color="#8879FD"/>
</radialGradient>
<radialGradient id="paint12_radial_402_8860" cx="0" cy="0" r="1" gradientTransform="matrix(-8.56972 9.16576 -9.53406 -9.02818 15.6232 3.34709)" gradientUnits="userSpaceOnUse">
<stop offset="0.000595" stop-color="#1A00FF"/>
<stop offset="1" stop-opacity="0"/>
</radialGradient>
<radialGradient id="paint13_radial_402_8860" cx="0" cy="0" r="1" gradientTransform="matrix(-9.37724 -0.649478 0.667965 -9.76762 9.95511 9.32439)" gradientUnits="userSpaceOnUse">
<stop offset="0.008065" stop-color="white" stop-opacity="0"/>
<stop offset="0.9451" stop-color="white" stop-opacity="0"/>
<stop offset="0.984962" stop-color="white"/>
</radialGradient>
<radialGradient id="paint14_radial_402_8860" cx="0" cy="0" r="1" gradientTransform="matrix(9.82019 -12.6514 13.1597 10.3455 5.0611 15.5692)" gradientUnits="userSpaceOnUse">
<stop offset="0.897895" stop-color="#0042FF" stop-opacity="0"/>
<stop offset="1" stop-color="#0042FF" stop-opacity="0.627451"/>
</radialGradient>
<radialGradient id="paint15_radial_402_8860" cx="0" cy="0" r="1" gradientTransform="matrix(-7.96997 15.2813 -10.087 -5.32824 13.0311 2.06489)" gradientUnits="userSpaceOnUse">
<stop offset="0.924347" stop-color="#FF7200" stop-opacity="0"/>
<stop offset="0.967108" stop-color="#FF9500"/>
<stop offset="0.997557" stop-color="#FF9500"/>
</radialGradient>
<radialGradient id="paint16_radial_402_8860" cx="0" cy="0" r="1" gradientTransform="matrix(8.25464 -13.8597 14.1264 8.52114 5.0611 17.1329)" gradientUnits="userSpaceOnUse">
<stop stop-color="#FFB000" stop-opacity="0.654902"/>
<stop offset="0.237634" stop-color="#C03500" stop-opacity="0.494118"/>
<stop offset="0.816276" stop-opacity="0"/>
</radialGradient>
<linearGradient id="paint17_linear_402_8860" x1="1.14718" y1="11.7307" x2="17.0427" y2="5.54477" gradientUnits="userSpaceOnUse">
<stop stop-color="white"/>
<stop offset="1" stop-color="white" stop-opacity="0"/>
</linearGradient>
<linearGradient id="paint18_linear_402_8860" x1="1.14718" y1="11.7307" x2="17.0427" y2="5.54477" gradientUnits="userSpaceOnUse">
<stop stop-color="white"/>
<stop offset="0.997132" stop-color="#47CCFF" stop-opacity="0.533333"/>
</linearGradient>
<radialGradient id="paint19_radial_402_8860" cx="0" cy="0" r="1" gradientTransform="matrix(-12.9023 -8.76432 6.48016 -9.5624 15.2701 13.3672)" gradientUnits="userSpaceOnUse">
<stop offset="0.929813" stop-color="white" stop-opacity="0"/>
<stop offset="0.999947" stop-color="white"/>
</radialGradient>
</defs>
</svg>
