<svg width="20" height="21" viewBox="0 0 20 21" fill="none" xmlns="http://www.w3.org/2000/svg">
<g filter="url(#filter0_di_429_10181)">
<g filter="url(#filter1_i_429_10181)">
<path fill-rule="evenodd" clip-rule="evenodd" d="M16.5833 3.73455C15.0215 1.76312 11.8833 -1.15752 5.87543 1.17899C-0.133881 3.5155 -0.804043 12.1022 1.636 15.1981C4.07456 18.2939 8.345 19.9558 11.3194 19.5177C14.2938 19.0796 15.1278 17.9844 15.8555 17.1812C16.5833 16.378 17.9221 14.7717 17.9221 12.5695C17.9221 10.3688 18.2941 8.81647 18.2941 8.11551C18.2941 7.41456 18.145 5.70599 16.5833 3.73455Z" fill="url(#paint0_radial_429_10181)" fill-opacity="0.6"/>
<path fill-rule="evenodd" clip-rule="evenodd" d="M16.5833 3.73455C15.0215 1.76312 11.8833 -1.15752 5.87543 1.17899C-0.133881 3.5155 -0.804043 12.1022 1.636 15.1981C4.07456 18.2939 8.345 19.9558 11.3194 19.5177C14.2938 19.0796 15.1278 17.9844 15.8555 17.1812C16.5833 16.378 17.9221 14.7717 17.9221 12.5695C17.9221 10.3688 18.2941 8.81647 18.2941 8.11551C18.2941 7.41456 18.145 5.70599 16.5833 3.73455Z" fill="url(#paint1_radial_429_10181)" fill-opacity="0.4"/>
<path fill-rule="evenodd" clip-rule="evenodd" d="M16.5833 3.73455C15.0215 1.76312 11.8833 -1.15752 5.87543 1.17899C-0.133881 3.5155 -0.804043 12.1022 1.636 15.1981C4.07456 18.2939 8.345 19.9558 11.3194 19.5177C14.2938 19.0796 15.1278 17.9844 15.8555 17.1812C16.5833 16.378 17.9221 14.7717 17.9221 12.5695C17.9221 10.3688 18.2941 8.81647 18.2941 8.11551C18.2941 7.41456 18.145 5.70599 16.5833 3.73455Z" fill="url(#paint2_radial_429_10181)" fill-opacity="0.34"/>
<path fill-rule="evenodd" clip-rule="evenodd" d="M16.5833 3.73455C15.0215 1.76312 11.8833 -1.15752 5.87543 1.17899C-0.133881 3.5155 -0.804043 12.1022 1.636 15.1981C4.07456 18.2939 8.345 19.9558 11.3194 19.5177C14.2938 19.0796 15.1278 17.9844 15.8555 17.1812C16.5833 16.378 17.9221 14.7717 17.9221 12.5695C17.9221 10.3688 18.2941 8.81647 18.2941 8.11551C18.2941 7.41456 18.145 5.70599 16.5833 3.73455Z" fill="url(#paint3_radial_429_10181)" fill-opacity="0.2"/>
<path fill-rule="evenodd" clip-rule="evenodd" d="M16.5833 3.73455C15.0215 1.76312 11.8833 -1.15752 5.87543 1.17899C-0.133881 3.5155 -0.804043 12.1022 1.636 15.1981C4.07456 18.2939 8.345 19.9558 11.3194 19.5177C14.2938 19.0796 15.1278 17.9844 15.8555 17.1812C16.5833 16.378 17.9221 14.7717 17.9221 12.5695C17.9221 10.3688 18.2941 8.81647 18.2941 8.11551C18.2941 7.41456 18.145 5.70599 16.5833 3.73455Z" fill="url(#paint4_radial_429_10181)" fill-opacity="0.6"/>
</g>
<path fill-rule="evenodd" clip-rule="evenodd" d="M16.5833 3.73553C15.0215 1.7641 11.8833 -1.15654 5.87543 1.17997C-0.133881 3.51648 -0.804043 12.1032 1.636 15.199C4.07456 18.2949 8.345 19.9568 11.3194 19.5187C14.2938 19.0806 15.1278 17.9853 15.8555 17.1822C16.5833 16.379 17.9221 14.7726 17.9221 12.5705C17.9221 10.3698 18.2941 8.81744 18.2941 8.11649C18.2941 7.41554 18.145 5.70696 16.5833 3.73553Z" fill="url(#paint5_radial_429_10181)" fill-opacity="0.6"/>
<path fill-rule="evenodd" clip-rule="evenodd" d="M16.5833 3.73553C15.0215 1.7641 11.8833 -1.15654 5.87543 1.17997C-0.133881 3.51648 -0.804043 12.1032 1.636 15.199C4.07456 18.2949 8.345 19.9568 11.3194 19.5187C14.2938 19.0806 15.1278 17.9853 15.8555 17.1822C16.5833 16.379 17.9221 14.7726 17.9221 12.5705C17.9221 10.3698 18.2941 8.81744 18.2941 8.11649C18.2941 7.41554 18.145 5.70696 16.5833 3.73553Z" fill="url(#paint6_radial_429_10181)" fill-opacity="0.2"/>
<g filter="url(#filter2_i_429_10181)">
<path fill-rule="evenodd" clip-rule="evenodd" d="M15.9826 4.94672C14.791 4.26622 12.1803 3.10634 9.80018 2.90521C7.11848 2.67838 4.88472 3.28327 3.24673 4.94672C1.60726 6.61018 0.341803 9.99757 2.42773 14.4738C4.51218 18.95 8.60864 18.8592 10.9917 18.1787C13.3748 17.4982 16.7262 16.2884 18.515 12.8859C20.4279 9.24448 17.5954 5.90396 15.9826 4.94672Z" fill="url(#paint7_radial_429_10181)" fill-opacity="0.8"/>
</g>
<g filter="url(#filter3_i_429_10181)">
<path fill-rule="evenodd" clip-rule="evenodd" d="M18.6893 12.0685C18.6893 10.0762 17.8781 7.98602 17.0002 6.91129C14.4598 3.79829 14.4999 1.20411 11.9936 1.20411C8.47744 1.20115 2.13171 1.72295 1.31014 8.24544C0.832612 12.0329 1.58004 22.1487 14.0565 17.5533C17.0892 16.4371 18.6893 14.0608 18.6893 12.0685Z" fill="url(#paint8_radial_429_10181)"/>
</g>
<g filter="url(#filter4_i_429_10181)">
<path fill-rule="evenodd" clip-rule="evenodd" d="M13.4033 2.17974C12.0688 1.80955 10.7799 1.0988 8.58614 1.21726C6.39089 1.33571 2.37411 2.94972 1.5428 7.51039C0.712955 12.0711 2.4668 16.8524 5.24913 18.2457C8.03292 19.6406 13.6711 18.4412 16.221 16.3089C18.4677 14.4284 20.1819 11.7261 19.5565 8.46102C18.8885 4.98129 16.1945 2.95416 13.4033 2.17974Z" fill="url(#paint9_radial_429_10181)" fill-opacity="0.6"/>
<path fill-rule="evenodd" clip-rule="evenodd" d="M13.4033 2.17974C12.0688 1.80955 10.7799 1.0988 8.58614 1.21726C6.39089 1.33571 2.37411 2.94972 1.5428 7.51039C0.712955 12.0711 2.4668 16.8524 5.24913 18.2457C8.03292 19.6406 13.6711 18.4412 16.221 16.3089C18.4677 14.4284 20.1819 11.7261 19.5565 8.46102C18.8885 4.98129 16.1945 2.95416 13.4033 2.17974Z" fill="url(#paint10_radial_429_10181)" fill-opacity="0.4"/>
<path fill-rule="evenodd" clip-rule="evenodd" d="M13.4033 2.17974C12.0688 1.80955 10.7799 1.0988 8.58614 1.21726C6.39089 1.33571 2.37411 2.94972 1.5428 7.51039C0.712955 12.0711 2.4668 16.8524 5.24913 18.2457C8.03292 19.6406 13.6711 18.4412 16.221 16.3089C18.4677 14.4284 20.1819 11.7261 19.5565 8.46102C18.8885 4.98129 16.1945 2.95416 13.4033 2.17974Z" fill="url(#paint11_radial_429_10181)" fill-opacity="0.34"/>
<path fill-rule="evenodd" clip-rule="evenodd" d="M13.4033 2.17974C12.0688 1.80955 10.7799 1.0988 8.58614 1.21726C6.39089 1.33571 2.37411 2.94972 1.5428 7.51039C0.712955 12.0711 2.4668 16.8524 5.24913 18.2457C8.03292 19.6406 13.6711 18.4412 16.221 16.3089C18.4677 14.4284 20.1819 11.7261 19.5565 8.46102C18.8885 4.98129 16.1945 2.95416 13.4033 2.17974Z" fill="url(#paint12_radial_429_10181)" fill-opacity="0.2"/>
<path fill-rule="evenodd" clip-rule="evenodd" d="M13.4033 2.17974C12.0688 1.80955 10.7799 1.0988 8.58614 1.21726C6.39089 1.33571 2.37411 2.94972 1.5428 7.51039C0.712955 12.0711 2.4668 16.8524 5.24913 18.2457C8.03292 19.6406 13.6711 18.4412 16.221 16.3089C18.4677 14.4284 20.1819 11.7261 19.5565 8.46102C18.8885 4.98129 16.1945 2.95416 13.4033 2.17974Z" fill="url(#paint13_radial_429_10181)" fill-opacity="0.4"/>
<path fill-rule="evenodd" clip-rule="evenodd" d="M13.4033 2.17974C12.0688 1.80955 10.7799 1.0988 8.58614 1.21726C6.39089 1.33571 2.37411 2.94972 1.5428 7.51039C0.712955 12.0711 2.4668 16.8524 5.24913 18.2457C8.03292 19.6406 13.6711 18.4412 16.221 16.3089C18.4677 14.4284 20.1819 11.7261 19.5565 8.46102C18.8885 4.98129 16.1945 2.95416 13.4033 2.17974Z" fill="url(#paint14_radial_429_10181)" fill-opacity="0.8"/>
<path fill-rule="evenodd" clip-rule="evenodd" d="M13.4033 2.17974C12.0688 1.80955 10.7799 1.0988 8.58614 1.21726C6.39089 1.33571 2.37411 2.94972 1.5428 7.51039C0.712955 12.0711 2.4668 16.8524 5.24913 18.2457C8.03292 19.6406 13.6711 18.4412 16.221 16.3089C18.4677 14.4284 20.1819 11.7261 19.5565 8.46102C18.8885 4.98129 16.1945 2.95416 13.4033 2.17974Z" fill="url(#paint15_radial_429_10181)" fill-opacity="0.4"/>
<path fill-rule="evenodd" clip-rule="evenodd" d="M13.4033 2.17974C12.0688 1.80955 10.7799 1.0988 8.58614 1.21726C6.39089 1.33571 2.37411 2.94972 1.5428 7.51039C0.712955 12.0711 2.4668 16.8524 5.24913 18.2457C8.03292 19.6406 13.6711 18.4412 16.221 16.3089C18.4677 14.4284 20.1819 11.7261 19.5565 8.46102C18.8885 4.98129 16.1945 2.95416 13.4033 2.17974Z" fill="url(#paint16_radial_429_10181)"/>
</g>
<g filter="url(#filter5_i_429_10181)">
<path fill-rule="evenodd" clip-rule="evenodd" d="M13.4033 2.17974C12.0688 1.80955 10.7799 1.0988 8.58614 1.21726C6.39089 1.33571 2.37411 2.94972 1.5428 7.51039C0.712955 12.0711 2.4668 16.8524 5.24913 18.2457C8.03292 19.6406 13.6711 18.4412 16.221 16.3089C18.4677 14.4284 20.1819 11.7261 19.5565 8.46102C18.8885 4.98129 16.1945 2.95416 13.4033 2.17974Z" fill="white" fill-opacity="0.01"/>
</g>
<path d="M8.58614 1.21628C6.39089 1.33474 2.37411 2.94874 1.5428 7.50941C0.712955 12.0701 2.4668 16.8514 5.24913 18.2448C8.03292 19.6396 13.6711 18.4402 16.221 16.308C18.4677 14.4274 20.1819 11.7251 19.5565 8.46005C18.8885 4.98031 16.1945 2.95318 13.4033 2.17876C12.0688 1.80857 10.7799 1.09782 8.58614 1.21628Z" stroke="url(#paint17_linear_429_10181)" stroke-opacity="0.6" stroke-width="0.063545"/>
<g filter="url(#filter6_i_429_10181)">
<path fill-rule="evenodd" clip-rule="evenodd" d="M13.4033 2.17974C12.0688 1.80955 10.7799 1.0988 8.58614 1.21726C6.39089 1.33571 2.37411 2.94972 1.5428 7.51039C0.712955 12.0711 2.4668 16.8524 5.24913 18.2457C8.03292 19.6406 13.6711 18.4412 16.221 16.3089C18.4677 14.4284 20.1819 11.7261 19.5565 8.46102C18.8885 4.98129 16.1945 2.95416 13.4033 2.17974Z" fill="white" fill-opacity="0.01"/>
</g>
<path d="M8.58614 1.21628C6.39089 1.33474 2.37411 2.94874 1.5428 7.50941C0.712955 12.0701 2.4668 16.8514 5.24913 18.2448C8.03292 19.6396 13.6711 18.4402 16.221 16.308C18.4677 14.4274 20.1819 11.7251 19.5565 8.46005C18.8885 4.98031 16.1945 2.95318 13.4033 2.17876C12.0688 1.80857 10.7799 1.09782 8.58614 1.21628Z" stroke="url(#paint18_linear_429_10181)" stroke-opacity="0.6" stroke-width="0.063545"/>
<g opacity="0.52">
<path d="M9.82247 17.5573C14.2258 17.5573 17.7953 14.0104 17.7953 9.63512C17.7953 5.25979 14.2258 1.71289 9.82247 1.71289C5.41918 1.71289 1.84961 5.25979 1.84961 9.63512C1.84961 14.0104 5.41918 17.5573 9.82247 17.5573Z" fill="url(#paint19_radial_429_10181)"/>
</g>
</g>
<defs>
<filter id="filter0_di_429_10181" x="0.05832" y="0.0592965" width="19.8295" height="19.9522" filterUnits="userSpaceOnUse" color-interpolation-filters="sRGB">
<feFlood flood-opacity="0" result="BackgroundImageFix"/>
<feColorMatrix in="SourceAlpha" type="matrix" values="0 0 0 0 0 0 0 0 0 0 0 0 0 0 0 0 0 0 127 0" result="hardAlpha"/>
<feOffset dy="0.25418"/>
<feGaussianBlur stdDeviation="0.0847267"/>
<feComposite in2="hardAlpha" operator="out"/>
<feColorMatrix type="matrix" values="0 0 0 0 1 0 0 0 0 0.27451 0 0 0 0 0 0 0 0 0.25 0"/>
<feBlend mode="normal" in2="BackgroundImageFix" result="effect1_dropShadow_429_10181"/>
<feBlend mode="normal" in="SourceGraphic" in2="effect1_dropShadow_429_10181" result="shape"/>
<feColorMatrix in="SourceAlpha" type="matrix" values="0 0 0 0 0 0 0 0 0 0 0 0 0 0 0 0 0 0 127 0" result="hardAlpha"/>
<feOffset dx="-0.25418" dy="-0.25418"/>
<feGaussianBlur stdDeviation="0.169453"/>
<feComposite in2="hardAlpha" operator="arithmetic" k2="-1" k3="1"/>
<feColorMatrix type="matrix" values="0 0 0 0 0 0 0 0 0 0.24314 0 0 0 0 1 0 0 0 0.53 0"/>
<feBlend mode="normal" in2="shape" result="effect2_innerShadow_429_10181"/>
</filter>
<filter id="filter1_i_429_10181" x="0.3125" y="0.313477" width="17.9816" height="19.2734" filterUnits="userSpaceOnUse" color-interpolation-filters="sRGB">
<feFlood flood-opacity="0" result="BackgroundImageFix"/>
<feBlend mode="normal" in="SourceGraphic" in2="BackgroundImageFix" result="shape"/>
<feColorMatrix in="SourceAlpha" type="matrix" values="0 0 0 0 0 0 0 0 0 0 0 0 0 0 0 0 0 0 127 0" result="hardAlpha"/>
<feOffset/>
<feGaussianBlur stdDeviation="0.0847267"/>
<feComposite in2="hardAlpha" operator="arithmetic" k2="-1" k3="1"/>
<feColorMatrix type="matrix" values="0 0 0 0 1 0 0 0 0 1 0 0 0 0 1 0 0 0 0.6 0"/>
<feBlend mode="normal" in2="shape" result="effect1_innerShadow_429_10181"/>
</filter>
<filter id="filter2_i_429_10181" x="1.33789" y="2.85938" width="17.817" height="15.666" filterUnits="userSpaceOnUse" color-interpolation-filters="sRGB">
<feFlood flood-opacity="0" result="BackgroundImageFix"/>
<feBlend mode="normal" in="SourceGraphic" in2="BackgroundImageFix" result="shape"/>
<feColorMatrix in="SourceAlpha" type="matrix" values="0 0 0 0 0 0 0 0 0 0 0 0 0 0 0 0 0 0 127 0" result="hardAlpha"/>
<feOffset/>
<feGaussianBlur stdDeviation="0.0423633"/>
<feComposite in2="hardAlpha" operator="arithmetic" k2="-1" k3="1"/>
<feColorMatrix type="matrix" values="0 0 0 0 1 0 0 0 0 1 0 0 0 0 1 0 0 0 0.6 0"/>
<feBlend mode="normal" in2="shape" result="effect1_innerShadow_429_10181"/>
</filter>
<filter id="filter3_i_429_10181" x="1.20898" y="1.2041" width="17.4803" height="17.8623" filterUnits="userSpaceOnUse" color-interpolation-filters="sRGB">
<feFlood flood-opacity="0" result="BackgroundImageFix"/>
<feBlend mode="normal" in="SourceGraphic" in2="BackgroundImageFix" result="shape"/>
<feColorMatrix in="SourceAlpha" type="matrix" values="0 0 0 0 0 0 0 0 0 0 0 0 0 0 0 0 0 0 127 0" result="hardAlpha"/>
<feOffset dy="0.50836"/>
<feGaussianBlur stdDeviation="0.169453"/>
<feComposite in2="hardAlpha" operator="arithmetic" k2="-1" k3="1"/>
<feColorMatrix type="matrix" values="0 0 0 0 1 0 0 0 0 1 0 0 0 0 1 0 0 0 0.039 0"/>
<feBlend mode="normal" in2="shape" result="effect1_innerShadow_429_10181"/>
</filter>
<filter id="filter4_i_429_10181" x="1.33594" y="1.2041" width="18.3506" height="17.6416" filterUnits="userSpaceOnUse" color-interpolation-filters="sRGB">
<feFlood flood-opacity="0" result="BackgroundImageFix"/>
<feBlend mode="normal" in="SourceGraphic" in2="BackgroundImageFix" result="shape"/>
<feColorMatrix in="SourceAlpha" type="matrix" values="0 0 0 0 0 0 0 0 0 0 0 0 0 0 0 0 0 0 127 0" result="hardAlpha"/>
<feOffset/>
<feGaussianBlur stdDeviation="0.0847267"/>
<feComposite in2="hardAlpha" operator="arithmetic" k2="-1" k3="1"/>
<feColorMatrix type="matrix" values="0 0 0 0 1 0 0 0 0 1 0 0 0 0 1 0 0 0 0.6 0"/>
<feBlend mode="normal" in2="shape" result="effect1_innerShadow_429_10181"/>
</filter>
<filter id="filter5_i_429_10181" x="1.33594" y="1.2041" width="18.3506" height="17.6416" filterUnits="userSpaceOnUse" color-interpolation-filters="sRGB">
<feFlood flood-opacity="0" result="BackgroundImageFix"/>
<feBlend mode="normal" in="SourceGraphic" in2="BackgroundImageFix" result="shape"/>
<feColorMatrix in="SourceAlpha" type="matrix" values="0 0 0 0 0 0 0 0 0 0 0 0 0 0 0 0 0 0 127 0" result="hardAlpha"/>
<feOffset/>
<feGaussianBlur stdDeviation="0.0847267"/>
<feComposite in2="hardAlpha" operator="arithmetic" k2="-1" k3="1"/>
<feColorMatrix type="matrix" values="0 0 0 0 1 0 0 0 0 1 0 0 0 0 1 0 0 0 0.6 0"/>
<feBlend mode="normal" in2="shape" result="effect1_innerShadow_429_10181"/>
</filter>
<filter id="filter6_i_429_10181" x="1.33594" y="1.2041" width="18.3506" height="17.6416" filterUnits="userSpaceOnUse" color-interpolation-filters="sRGB">
<feFlood flood-opacity="0" result="BackgroundImageFix"/>
<feBlend mode="normal" in="SourceGraphic" in2="BackgroundImageFix" result="shape"/>
<feColorMatrix in="SourceAlpha" type="matrix" values="0 0 0 0 0 0 0 0 0 0 0 0 0 0 0 0 0 0 127 0" result="hardAlpha"/>
<feOffset/>
<feGaussianBlur stdDeviation="0.0423633"/>
<feComposite in2="hardAlpha" operator="arithmetic" k2="-1" k3="1"/>
<feColorMatrix type="matrix" values="0 0 0 0 1 0 0 0 0 1 0 0 0 0 1 0 0 0 0.6 0"/>
<feBlend mode="normal" in2="shape" result="effect1_innerShadow_429_10181"/>
</filter>
<radialGradient id="paint0_radial_429_10181" cx="0" cy="0" r="1" gradientTransform="matrix(-2.21417 19.2726 -17.5597 -1.9744 11.5182 0.314481)" gradientUnits="userSpaceOnUse">
<stop offset="0.018757" stop-color="#4F7AFF"/>
<stop offset="0.510566" stop-opacity="0"/>
</radialGradient>
<radialGradient id="paint1_radial_429_10181" cx="0" cy="0" r="1" gradientTransform="matrix(9.22388 9.37674 -14.1795 13.6512 2.09581 3.71557)" gradientUnits="userSpaceOnUse">
<stop offset="0.007027" stop-color="#B6B8FF"/>
<stop offset="1" stop-opacity="0"/>
</radialGradient>
<radialGradient id="paint2_radial_429_10181" cx="0" cy="0" r="1" gradientTransform="matrix(10.1728 6.20827 -5.7923 9.28898 8.1218 9.9507)" gradientUnits="userSpaceOnUse">
<stop offset="0.313545" stop-opacity="0"/>
<stop offset="1" stop-color="#8879FD"/>
</radialGradient>
<radialGradient id="paint3_radial_429_10181" cx="0" cy="0" r="1" gradientTransform="matrix(-4.29054 12.4992 -11.6617 -3.91779 15.0896 3.14867)" gradientUnits="userSpaceOnUse">
<stop offset="0.000595" stop-color="#1A00FF"/>
<stop offset="1" stop-opacity="0"/>
</radialGradient>
<radialGradient id="paint4_radial_429_10181" cx="0" cy="0" r="1" gradientTransform="matrix(-8.92388 14.0921 -10.7626 -6.67027 13.625 3.6002)" gradientUnits="userSpaceOnUse">
<stop offset="0.928993" stop-color="#FF7200" stop-opacity="0"/>
<stop offset="1" stop-color="#FF6A00"/>
</radialGradient>
<radialGradient id="paint5_radial_429_10181" cx="0" cy="0" r="1" gradientTransform="matrix(-4.3133 -9.58273 9.25424 -4.07671 10.0554 10.4093)" gradientUnits="userSpaceOnUse">
<stop offset="0.90616" stop-color="white" stop-opacity="0"/>
<stop offset="1" stop-color="white"/>
</radialGradient>
<radialGradient id="paint6_radial_429_10181" cx="0" cy="0" r="1" gradientTransform="matrix(9.22148 11.6826 -10.8998 8.42031 5.14726 2.43292)" gradientUnits="userSpaceOnUse">
<stop stop-color="#D3CFFF"/>
<stop offset="0.68543" stop-color="#ADBEFF" stop-opacity="0"/>
</radialGradient>
<radialGradient id="paint7_radial_429_10181" cx="0" cy="0" r="1" gradientTransform="matrix(4.17075 -9.60265 10.7135 4.86906 8.56282 12.4625)" gradientUnits="userSpaceOnUse">
<stop offset="0.663743" stop-color="#292929" stop-opacity="0.039216"/>
<stop offset="0.999532" stop-color="#6772FF" stop-opacity="0.384314"/>
</radialGradient>
<radialGradient id="paint8_radial_429_10181" cx="0" cy="0" r="1" gradientTransform="matrix(12.6234 1.342 -1.10836 10.4172 6.06625 9.96649)" gradientUnits="userSpaceOnUse">
<stop offset="0.900111" stop-color="#FF9E00" stop-opacity="0"/>
<stop offset="1" stop-color="#696FFE" stop-opacity="0.219608"/>
</radialGradient>
<radialGradient id="paint9_radial_429_10181" cx="0" cy="0" r="1" gradientTransform="matrix(-2.25955 17.6411 -17.9198 -2.32462 12.7715 1.20541)" gradientUnits="userSpaceOnUse">
<stop offset="0.018757" stop-color="#4F7AFF"/>
<stop offset="0.506049" stop-opacity="0"/>
</radialGradient>
<radialGradient id="paint10_radial_429_10181" cx="0" cy="0" r="1" gradientTransform="matrix(10.2359 7.33812 -12.3715 17.4779 3.15598 4.31851)" gradientUnits="userSpaceOnUse">
<stop offset="0.007027" stop-color="#AAA3FF"/>
<stop offset="0.994528" stop-opacity="0.011765"/>
</radialGradient>
<radialGradient id="paint11_radial_429_10181" cx="0" cy="0" r="1" gradientTransform="matrix(10.8174 4.89209 -5.08865 11.3961 6.45181 10.026)" gradientUnits="userSpaceOnUse">
<stop offset="0.306882" stop-opacity="0"/>
<stop offset="1" stop-color="#8879FD"/>
</radialGradient>
<radialGradient id="paint12_radial_429_10181" cx="0" cy="0" r="1" gradientTransform="matrix(-8.92679 9.54767 -9.93131 -9.40435 16.4162 3.79966)" gradientUnits="userSpaceOnUse">
<stop offset="0.000595" stop-color="#1A00FF"/>
<stop offset="1" stop-opacity="0"/>
</radialGradient>
<radialGradient id="paint13_radial_429_10181" cx="0" cy="0" r="1" gradientTransform="matrix(-9.76796 -0.67654 0.695797 -10.1746 10.512 10.026)" gradientUnits="userSpaceOnUse">
<stop offset="0.008065" stop-color="white" stop-opacity="0"/>
<stop offset="0.9451" stop-color="white" stop-opacity="0"/>
<stop offset="0.984962" stop-color="white"/>
</radialGradient>
<radialGradient id="paint14_radial_429_10181" cx="0" cy="0" r="1" gradientTransform="matrix(10.2294 -13.1786 13.708 10.7766 5.41406 16.531)" gradientUnits="userSpaceOnUse">
<stop offset="0.897895" stop-color="#0042FF" stop-opacity="0"/>
<stop offset="1" stop-color="#0042FF" stop-opacity="0.627451"/>
</radialGradient>
<radialGradient id="paint15_radial_429_10181" cx="0" cy="0" r="1" gradientTransform="matrix(-8.30205 15.918 -10.5073 -5.55025 13.7162 2.46404)" gradientUnits="userSpaceOnUse">
<stop offset="0.924347" stop-color="#FF7200" stop-opacity="0"/>
<stop offset="0.967108" stop-color="#FF9500"/>
<stop offset="0.997557" stop-color="#FF9500"/>
</radialGradient>
<radialGradient id="paint16_radial_429_10181" cx="0" cy="0" r="1" gradientTransform="matrix(8.59858 -14.4372 14.715 8.87619 5.41406 18.1599)" gradientUnits="userSpaceOnUse">
<stop stop-color="#FFB000" stop-opacity="0.654902"/>
<stop offset="0.237634" stop-color="#C03500" stop-opacity="0.494118"/>
<stop offset="0.816276" stop-opacity="0"/>
</radialGradient>
<linearGradient id="paint17_linear_429_10181" x1="1.33711" y1="12.5321" x2="17.895" y2="6.08835" gradientUnits="userSpaceOnUse">
<stop stop-color="white"/>
<stop offset="1" stop-color="white" stop-opacity="0"/>
</linearGradient>
<linearGradient id="paint18_linear_429_10181" x1="1.33711" y1="12.5321" x2="17.895" y2="6.08835" gradientUnits="userSpaceOnUse">
<stop stop-color="white"/>
<stop offset="0.997132" stop-color="#47CCFF" stop-opacity="0.533333"/>
</linearGradient>
<radialGradient id="paint19_radial_429_10181" cx="0" cy="0" r="1" gradientTransform="matrix(-13.4399 -9.1295 6.75017 -9.96083 16.0489 14.2376)" gradientUnits="userSpaceOnUse">
<stop offset="0.929813" stop-color="white" stop-opacity="0"/>
<stop offset="0.999947" stop-color="white"/>
</radialGradient>
</defs>
</svg>
